<svg xmlns="http://www.w3.org/2000/svg" viewBox="0 0 56 64" fill="none" role="img" aria-label="Duckly">
  <path fill="#F3AB3D" d="M55.01 41.817c0 11.2 0 22.325-27.505 22.325C3.973 64.142 0 51.798 0 41.817 0 23.09 12.314 7.91 27.505 7.91s27.504 15.18 27.504 33.907"/>
  <path fill="#F3AB3D" d="M43.943 16.244c-.932 1.613-7.465-.416-14.592-4.531C22.223 7.597 17.2 2.954 18.13 1.34s7.464.417 14.591 4.532c7.128 4.115 12.152 8.758 11.22 10.371"/>
  <mask id="c" width="22" height="12" x="30" y="24" maskUnits="userSpaceOnUse" style="mask-type:alpha">
    <path fill="#D9D9D9" d="M51.06 35.031a10.21 10.21 0 0 0-20.421 0z"/>
  </mask>
  <g mask="url(#c)">
    <path fill="#fff" d="M51.06 35.031a10.21 10.21 0 0 0-20.421 0z"/>
    <path fill="#000" d="M55.028 35.234a10.21 10.21 0 1 0-20.42 0z"/>
  </g>
  <mask id="d" width="21" height="12" x="5" y="24" maskUnits="userSpaceOnUse" style="mask-type:alpha">
    <path fill="#D9D9D9" d="M25.44 35.031a10.21 10.21 0 1 0-20.42 0z"/>
  </mask>
  <g mask="url(#d)">
    <path fill="#fff" d="M25.44 35.031a10.21 10.21 0 1 0-20.42 0z"/>
    <path fill="#000" d="M30.007 35.234a10.21 10.21 0 1 0-20.421 0z"/>
  </g>
  <path fill="#E2662A" d="M29.424 27.334 8.664 40.122a.38.38 0 0 0 .039.67l20.76 9.651a.38.38 0 0 0 .541-.345v-22.44a.38.38 0 0 0-.58-.325"/>
  <path fill="#E2662A" d="M29.942 27.659c0-.249-.273-.4-.484-.27L8.698 40.177a.317.317 0 0 0 .032.558l20.76 9.652a.318.318 0 0 0 .452-.288zm.127 22.44c0 .325-.337.54-.632.403L8.677 40.85a.444.444 0 0 1-.046-.78l20.76-12.79a.444.444 0 0 1 .678.378z"/>
</svg>
