<svg xmlns="http://www.w3.org/2000/svg" width="239" height="65" fill="none"><g clip-path="url(#a)"><g clip-path="url(#b)"><path fill="#F3AB3D" d="M55.01 41.817c0 11.2 0 22.325-27.505 22.325C3.973 64.142 0 51.798 0 41.817 0 23.09 12.314 7.91 27.505 7.91s27.504 15.18 27.504 33.907"/><path fill="#F3AB3D" d="M43.943 16.244c-.932 1.613-7.465-.416-14.592-4.531C22.223 7.597 17.2 2.954 18.13 1.34s7.464.417 14.591 4.532c7.128 4.115 12.152 8.758 11.22 10.371"/><mask id="c" width="22" height="12" x="30" y="24" maskUnits="userSpaceOnUse" style="mask-type:alpha"><path fill="#D9D9D9" d="M51.06 35.031a10.21 10.21 0 0 0-20.421 0z"/></mask><g mask="url(#c)"><path fill="#fff" d="M51.06 35.031a10.21 10.21 0 0 0-20.421 0z"/><path fill="#000" d="M55.028 35.234a10.21 10.21 0 1 0-20.42 0z"/></g><mask id="d" width="21" height="12" x="5" y="24" maskUnits="userSpaceOnUse" style="mask-type:alpha"><path fill="#D9D9D9" d="M25.44 35.031a10.21 10.21 0 1 0-20.42 0z"/></mask><g mask="url(#d)"><path fill="#fff" d="M25.44 35.031a10.21 10.21 0 1 0-20.42 0z"/><path fill="#000" d="M30.007 35.234a10.21 10.21 0 1 0-20.421 0z"/></g><path fill="#E2662A" d="M29.424 27.334 8.664 40.122a.38.38 0 0 0 .039.67l20.76 9.651a.38.38 0 0 0 .541-.345v-22.44a.38.38 0 0 0-.58-.325"/><path fill="#E2662A" d="M29.942 27.659c0-.249-.273-.4-.484-.27L8.698 40.177a.317.317 0 0 0 .032.558l20.76 9.652a.318.318 0 0 0 .452-.288zm.127 22.44c0 .325-.337.54-.632.403L8.677 40.85a.444.444 0 0 1-.046-.78l20.76-12.79a.444.444 0 0 1 .678.378z"/></g><path fill="#15130F" d="M78.926 51v-1.91a10 10 0 0 1 1.91-.856 12 12 0 0 1 2.213-.603V19.169a25 25 0 0 1-2.263-.603 14 14 0 0 1-1.86-.855V15.8h5.833q.855 0 2.112-.05t2.615-.1a77 77 0 0 1 2.614-.152q1.308-.1 2.213-.1 4.376 0 7.794 1.156 3.47 1.156 5.833 3.37 2.414 2.212 3.671 5.48 1.308 3.27 1.308 7.543 0 4.174-1.207 7.594t-3.621 5.833q-2.413 2.413-6.135 3.771-3.67 1.308-8.649 1.308a21 21 0 0 1-1.76-.101 69 69 0 0 1-2.363-.15 63 63 0 0 1-2.514-.152 56 56 0 0 0-2.213-.05zm14.733-32.334q-.905 0-1.81.05t-1.559.151v29.116q.201.05.704.1.502 0 1.006.05.553 0 1.056.051h.754q2.917 0 4.928-1.207a9.8 9.8 0 0 0 3.369-3.268q1.308-2.062 1.911-4.828t.604-5.883q0-2.766-.654-5.33-.603-2.565-1.911-4.577a9.84 9.84 0 0 0-3.42-3.218q-2.06-1.206-4.978-1.207m23.852 22.377q0-3.168.151-5.883t.151-5.733l-3.319-.402v-1.961q.805-.302 1.961-.603a29 29 0 0 1 2.464-.503 36 36 0 0 1 2.414-.403 52 52 0 0 1 2.011-.301h1.71q0 3.771-.151 7.442-.15 3.621-.151 7.14 0 4.124.805 5.934.855 1.81 3.118 1.81 1.558 0 2.866-1.156 1.358-1.207 2.213-3.822V29.427l-3.269-.402v-1.961a18 18 0 0 1 1.861-.603 27 27 0 0 1 2.363-.503 34 34 0 0 1 2.464-.403 40 40 0 0 1 2.112-.301h1.71V47.43l3.319.402v1.76q-.705.302-1.76.603-1.056.303-2.213.604-1.156.252-2.313.402-1.106.201-2.012.302h-1.709l-.352-5.984h-.201q-.252 1.056-.906 2.162a8.4 8.4 0 0 1-1.709 1.961q-1.006.855-2.414 1.408t-3.118.553q-1.91 0-3.419-.502-1.458-.453-2.514-1.66t-1.61-3.218q-.552-2.062-.553-5.18m49.636 5.884q-.352 1.005-1.157 1.86-.804.805-1.961 1.459-1.106.653-2.564 1.005-1.408.352-2.967.352-3.32 0-5.733-.905-2.364-.955-3.922-2.665-1.558-1.76-2.313-4.174-.755-2.464-.755-5.43 0-6.387 3.47-9.756 3.52-3.42 9.957-3.42 2.464 0 4.525.554 2.063.502 3.42 1.207-.1.855-.302 1.91-.15 1.006-.402 2.062-.201 1.005-.503 2.012a14 14 0 0 1-.603 1.609h-2.464l-2.112-5.984a2.2 2.2 0 0 0-.755-.352q-.402-.15-1.207-.151-1.307 0-2.262.503-.956.453-1.66 1.609-.654 1.157-1.006 3.067-.301 1.911-.301 4.727 0 2.063.452 3.822.453 1.71 1.358 3.017a7.2 7.2 0 0 0 2.363 2.012q1.408.704 3.319.704 1.76 0 3.068-.503 1.307-.504 2.212-1.207zm16.613-21.07h11.767v1.961q-.956.402-1.81.704-.805.302-1.811.503a29 29 0 0 1-1.659 2.012 47 47 0 0 1-1.76 1.86l-1.66 1.76-1.458 1.458q.755 1.005 1.76 2.414 1.006 1.408 2.162 3.017 1.157 1.56 2.414 3.219a83 83 0 0 0 2.615 3.067l2.565 1.207V51h-8.499l-1.357-1.207a70 70 0 0 1-2.062-2.916 59 59 0 0 1-1.559-2.615q-.704-1.257-1.358-2.414-.654-1.207-1.307-2.363l-1.66-.503v8.85q.855.15 1.559.453.704.3 1.509.754V51h-13.628v-1.961a16.6 16.6 0 0 1 3.319-1.207V17.359l-3.821-.402v-1.962q.704-.3 1.91-.603 1.208-.302 2.565-.503a39 39 0 0 1 2.665-.402 55 55 0 0 1 2.213-.302h1.709V36.77h1.308a29.4 29.4 0 0 0 3.067-3.872 110 110 0 0 0 2.565-3.872 6.5 6.5 0 0 1-1.207-.503 15 15 0 0 1-1.056-.704zM211.317 51h-13.879v-1.961a16.5 16.5 0 0 1 3.319-1.207V17.359l-3.822-.402v-1.962q.654-.3 1.81-.603a25 25 0 0 1 2.464-.503 40 40 0 0 1 2.666-.402 47 47 0 0 1 2.413-.302h1.71v34.647q1.66.402 3.319 1.207zm2.164-21.975a8.7 8.7 0 0 1-1.408-.503 16 16 0 0 1-1.257-.704v-1.96h13.225v1.91q-1.056.704-2.867 1.257l5.079 12.622.855 3.218h.101l.804-3.268 3.923-12.572a7.05 7.05 0 0 1-2.766-1.207v-1.96h9.705v1.96q-1.056.705-2.866 1.207L227.812 51q-1.206 3.218-2.414 5.23-1.207 2.061-2.413 3.268-1.207 1.207-2.414 1.66a9.2 9.2 0 0 1-2.414.653 4.6 4.6 0 0 1-.905-1.156 8.4 8.4 0 0 1-.704-1.458 12 12 0 0 1-.503-1.56 9 9 0 0 1-.251-1.508l.654-1.207h6.134q.453-.704.755-1.508.352-.805.804-2.414z"/></g><defs><clipPath id="a"><path fill="#fff" d="M0 0h238.92v65H0z"/></clipPath><clipPath id="b"><path fill="#fff" d="M0 .788h55.063v63.424H0z"/></clipPath></defs></svg>